<?xml version="1.0" encoding="UTF-8"?>
<!DOCTYPE svg PUBLIC "-//W3C//DTD SVG 1.1//EN" "http://www.w3.org/Graphics/SVG/1.1/DTD/svg11.dtd">
<svg version="1.2" width="306.91mm" height="74.08mm" viewBox="0 0 30691 7408" preserveAspectRatio="xMidYMid" fill-rule="evenodd" stroke-width="28.222" stroke-linejoin="round" xmlns="http://www.w3.org/2000/svg" xmlns:ooo="http://xml.openoffice.org/svg/export" xmlns:xlink="http://www.w3.org/1999/xlink" xmlns:presentation="http://sun.com/xmlns/staroffice/presentation" xmlns:smil="http://www.w3.org/2001/SMIL20/" xmlns:anim="urn:oasis:names:tc:opendocument:xmlns:animation:1.0" xml:space="preserve">
 <defs class="ClipPathGroup">
  <clipPath id="presentation_clip_path" clipPathUnits="userSpaceOnUse">
   <rect x="0" y="0" width="30691" height="7408"/>
  </clipPath>
  <clipPath id="presentation_clip_path_shrink" clipPathUnits="userSpaceOnUse">
   <rect x="30" y="7" width="30630" height="7394"/>
  </clipPath>
 </defs>
 <defs class="TextShapeIndex">
  <g ooo:slide="id1" ooo:id-list="id3 id4 id5 id6 id7 id8 id9 id10 id11 id12 id13 id14 id15 id16 id17 id18 id19 id20 id21"/>
 </defs>
 <defs class="EmbeddedBulletChars">
  <g id="bullet-char-template-57356" transform="scale(0.00048828125,-0.00048828125)">
   <path d="M 580,1141 L 1163,571 580,0 -4,571 580,1141 Z"/>
  </g>
  <g id="bullet-char-template-57354" transform="scale(0.00048828125,-0.00048828125)">
   <path d="M 8,1128 L 1137,1128 1137,0 8,0 8,1128 Z"/>
  </g>
  <g id="bullet-char-template-10146" transform="scale(0.00048828125,-0.00048828125)">
   <path d="M 174,0 L 602,739 174,1481 1456,739 174,0 Z M 1358,739 L 309,1346 659,739 1358,739 Z"/>
  </g>
  <g id="bullet-char-template-10132" transform="scale(0.00048828125,-0.00048828125)">
   <path d="M 2015,739 L 1276,0 717,0 1260,543 174,543 174,936 1260,936 717,1481 1274,1481 2015,739 Z"/>
  </g>
  <g id="bullet-char-template-10007" transform="scale(0.00048828125,-0.00048828125)">
   <path d="M 0,-2 C -7,14 -16,27 -25,37 L 356,567 C 262,823 215,952 215,954 215,979 228,992 255,992 264,992 276,990 289,987 310,991 331,999 354,1012 L 381,999 492,748 772,1049 836,1024 860,1049 C 881,1039 901,1025 922,1006 886,937 835,863 770,784 769,783 710,716 594,584 L 774,223 C 774,196 753,168 711,139 L 727,119 C 717,90 699,76 672,76 641,76 570,178 457,381 L 164,-76 C 142,-110 111,-127 72,-127 30,-127 9,-110 8,-76 1,-67 -2,-52 -2,-32 -2,-23 -1,-13 0,-2 Z"/>
  </g>
  <g id="bullet-char-template-10004" transform="scale(0.00048828125,-0.00048828125)">
   <path d="M 285,-33 C 182,-33 111,30 74,156 52,228 41,333 41,471 41,549 55,616 82,672 116,743 169,778 240,778 293,778 328,747 346,684 L 369,508 C 377,444 397,411 428,410 L 1163,1116 C 1174,1127 1196,1133 1229,1133 1271,1133 1292,1118 1292,1087 L 1292,965 C 1292,929 1282,901 1262,881 L 442,47 C 390,-6 338,-33 285,-33 Z"/>
  </g>
  <g id="bullet-char-template-9679" transform="scale(0.00048828125,-0.00048828125)">
   <path d="M 813,0 C 632,0 489,54 383,161 276,268 223,411 223,592 223,773 276,916 383,1023 489,1130 632,1184 813,1184 992,1184 1136,1130 1245,1023 1353,916 1407,772 1407,592 1407,412 1353,268 1245,161 1136,54 992,0 813,0 Z"/>
  </g>
  <g id="bullet-char-template-8226" transform="scale(0.00048828125,-0.00048828125)">
   <path d="M 346,457 C 273,457 209,483 155,535 101,586 74,649 74,723 74,796 101,859 155,911 209,963 273,989 346,989 419,989 480,963 531,910 582,859 608,796 608,723 608,648 583,586 532,535 482,483 420,457 346,457 Z"/>
  </g>
  <g id="bullet-char-template-8211" transform="scale(0.00048828125,-0.00048828125)">
   <path d="M -4,459 L 1135,459 1135,606 -4,606 -4,459 Z"/>
  </g>
  <g id="bullet-char-template-61548" transform="scale(0.00048828125,-0.00048828125)">
   <path d="M 173,740 C 173,903 231,1043 346,1159 462,1274 601,1332 765,1332 928,1332 1067,1274 1183,1159 1299,1043 1357,903 1357,740 1357,577 1299,437 1183,322 1067,206 928,148 765,148 601,148 462,206 346,322 231,437 173,577 173,740 Z"/>
  </g>
 </defs>
 <defs class="TextEmbeddedBitmaps"/>
 <g>
  <g id="id2" class="Master_Slide">
   <g id="bg-id2" class="Background"/>
   <g id="bo-id2" class="BackgroundObjects"/>
  </g>
 </g>
 <g class="SlideGroup">
  <g>
   <g id="container-id1">
    <g id="id1" class="Slide" clip-path="url(#presentation_clip_path)">
     <g class="Page">
      <g class="com.sun.star.drawing.ClosedBezierShape">
       <g id="id3">
        <rect class="BoundingBox" stroke="none" fill="none" x="27262" y="472" width="3189" height="3901"/>
        <path fill="rgb(255,255,255)" stroke="none" d="M 29297,1889 L 28617,1719 C 28163,1600 28125,1524 28125,1341 28125,1316 28138,1234 28151,1209 28069,1026 27810,598 27691,472 27508,573 27262,882 27262,1411 27262,2086 27508,2331 28188,2501 L 28976,2703 C 29555,2854 29586,2942 29586,3106 29586,3151 29574,3215 29566,3248 29542,3337 29467,3487 29176,3582 29000,3631 28798,3666 28585,3666 28195,3666 27577,3597 27326,3540 L 27326,4227 C 27552,4309 28113,4372 28516,4372 28636,4372 28786,4367 28932,4354 29019,4351 29587,4323 29989,4037 29989,4038 29989,4038 29990,4038 30002,4029 30015,4019 30028,4008 30136,3925 30230,3822 30297,3693 30300,3686 30302,3680 30306,3674 30390,3513 30450,3300 30450,3011 30450,2363 30191,2123 29297,1889 Z"/>
       </g>
      </g>
      <g class="com.sun.star.drawing.PolyPolygonShape">
       <g id="id4">
        <rect class="BoundingBox" stroke="none" fill="none" x="10805" y="20" width="2415" height="4283"/>
        <path fill="rgb(255,255,255)" stroke="none" d="M 11512,20 L 10805,428 12271,4302 13219,4302 11512,20 Z"/>
       </g>
      </g>
      <g class="com.sun.star.drawing.ClosedBezierShape">
       <g id="id5">
        <rect class="BoundingBox" stroke="none" fill="none" x="28151" y="100" width="2080" height="859"/>
        <path fill="rgb(255,255,255)" stroke="none" d="M 30230,895 L 30230,201 C 30008,151 29549,101 29171,101 28913,101 28598,139 28459,170 28346,309 28188,757 28151,958 28377,864 28717,807 29171,807 29448,807 29952,851 30230,895 Z"/>
       </g>
      </g>
      <g class="com.sun.star.drawing.PolyPolygonShape">
       <g id="id6">
        <rect class="BoundingBox" stroke="none" fill="none" x="9176" y="1001" width="1659" height="3303"/>
        <path fill="rgb(255,255,255)" stroke="none" d="M 9932,1385 L 9176,4303 10052,4303 10253,3496 10411,2778 10834,1001 9932,1385 Z"/>
       </g>
      </g>
      <g class="com.sun.star.drawing.PolyPolygonShape">
       <g id="id7">
        <rect class="BoundingBox" stroke="none" fill="none" x="19611" y="170" width="3441" height="739"/>
        <path fill="rgb(255,255,255)" stroke="none" d="M 19611,908 L 23051,908 23051,170 19611,170 19611,908 Z"/>
       </g>
      </g>
      <g class="com.sun.star.drawing.PolyPolygonShape">
       <g id="id8">
        <rect class="BoundingBox" stroke="none" fill="none" x="20902" y="1064" width="865" height="3240"/>
        <path fill="rgb(255,255,255)" stroke="none" d="M 21766,1442 L 20902,1064 20902,4303 21766,4303 21766,1442 Z"/>
       </g>
      </g>
      <g class="com.sun.star.drawing.PolyPolygonShape">
       <g id="id9">
        <rect class="BoundingBox" stroke="none" fill="none" x="24655" y="170" width="866" height="4134"/>
        <path fill="rgb(255,255,255)" stroke="none" d="M 25520,170 L 24656,170 24656,4303 25520,4303 25520,170 Z"/>
       </g>
      </g>
      <g class="com.sun.star.drawing.ClosedBezierShape">
       <g id="id10">
        <rect class="BoundingBox" stroke="none" fill="none" x="14446" y="173" width="3801" height="4142"/>
        <path fill="rgb(255,255,255)" stroke="none" d="M 18120,1624 C 18120,715 17786,173 16384,173 L 14447,173 14447,810 15166,911 16308,911 C 17028,911 17249,1145 17249,1599 17249,1851 17161,2086 17015,2174 16889,2250 16504,2294 16188,2294 L 15532,2294 15532,1403 14668,1056 14668,4313 15532,4313 15532,3001 16239,3001 C 16408,3001 16584,3003 16757,2991 L 17245,4314 18246,4313 17586,2792 C 18004,2506 18120,1940 18120,1624 Z"/>
       </g>
      </g>
      <g class="com.sun.star.drawing.PolyPolygonShape">
       <g id="id11">
        <rect class="BoundingBox" stroke="none" fill="none" x="9146" y="5908" width="1158" height="1478"/>
        <path fill="rgb(255,255,255)" stroke="none" d="M 9146,6076 L 9625,6076 9625,7385 9826,7385 9826,6076 10303,6076 10303,5908 9146,5908 9146,6076 Z"/>
       </g>
      </g>
      <g class="com.sun.star.drawing.ClosedBezierShape">
       <g id="id12">
        <rect class="BoundingBox" stroke="none" fill="none" x="10557" y="5908" width="1386" height="1478"/>
        <path fill="rgb(255,255,255)" stroke="none" d="M 10974,6837 L 11205,6236 C 11212,6219 11219,6198 11226,6174 11234,6150 11241,6124 11249,6096 11263,6152 11278,6198 11293,6235 L 11525,6837 10974,6837 Z M 11148,5908 L 10557,7385 10712,7385 C 10729,7385 10744,7380 10755,7371 10767,7361 10775,7350 10780,7338 L 10918,6981 11580,6981 11718,7338 C 11724,7351 11732,7363 11743,7372 11754,7381 11769,7385 11787,7385 L 11942,7385 11351,5908 11148,5908 Z"/>
       </g>
      </g>
      <g class="com.sun.star.drawing.ClosedBezierShape">
       <g id="id13">
        <rect class="BoundingBox" stroke="none" fill="none" x="12405" y="5908" width="1178" height="1495"/>
        <path fill="rgb(255,255,255)" stroke="none" d="M 13382,6806 C 13382,6868 13373,6925 13356,6976 13338,7028 13313,7072 13280,7109 13246,7146 13206,7175 13157,7195 13109,7216 13055,7226 12994,7226 12933,7226 12878,7216 12829,7195 12781,7174 12740,7145 12707,7108 12674,7071 12648,7026 12631,6975 12613,6923 12604,6867 12604,6805 L 12604,5908 12405,5908 12405,6806 C 12405,6891 12419,6970 12446,7043 12473,7116 12512,7179 12563,7232 12614,7285 12676,7327 12749,7357 12821,7387 12903,7402 12994,7402 13084,7402 13166,7387 13239,7357 13312,7327 13373,7285 13424,7232 13474,7179 13514,7116 13541,7043 13568,6970 13582,6891 13582,6806 L 13582,5908 13382,5908 13382,6806 Z"/>
       </g>
      </g>
      <g class="com.sun.star.drawing.PolyPolygonShape">
       <g id="id14">
        <rect class="BoundingBox" stroke="none" fill="none" x="23304" y="5908" width="912" height="1478"/>
        <path fill="rgb(255,255,255)" stroke="none" d="M 23304,7385 L 24215,7385 24215,7222 23505,7222 23505,6718 24079,6718 24079,6561 23505,6561 23505,6071 24215,6071 24215,5908 23304,5908 23304,7385 Z"/>
       </g>
      </g>
      <g class="com.sun.star.drawing.PolyPolygonShape">
       <g id="id15">
        <rect class="BoundingBox" stroke="none" fill="none" x="24701" y="5908" width="1158" height="1478"/>
        <path fill="rgb(255,255,255)" stroke="none" d="M 24701,6076 L 25181,6076 25181,7385 25381,7385 25381,6076 25858,6076 25858,5908 24701,5908 24701,6076 Z"/>
       </g>
      </g>
      <g class="com.sun.star.drawing.ClosedBezierShape">
       <g id="id16">
        <rect class="BoundingBox" stroke="none" fill="none" x="21395" y="5908" width="1201" height="1478"/>
        <path fill="rgb(255,255,255)" stroke="none" d="M 22419,6954 C 22419,6970 22420,6987 22420,7003 22421,7020 22422,7037 22425,7055 L 21568,5942 C 21558,5928 21548,5919 21539,5914 21531,5910 21517,5908 21500,5908 L 21396,5908 21396,7385 21572,7385 21572,6332 C 21572,6318 21571,6303 21571,6287 21570,6270 21569,6254 21567,6236 L 22422,7349 C 22433,7362 22443,7371 22454,7377 22464,7382 22478,7385 22494,7385 L 22595,7385 22595,5908 22419,5908 22419,6954 Z"/>
       </g>
      </g>
      <g class="com.sun.star.drawing.PolyPolygonShape">
       <g id="id17">
        <rect class="BoundingBox" stroke="none" fill="none" x="15125" y="5908" width="1158" height="1478"/>
        <path fill="rgb(255,255,255)" stroke="none" d="M 15125,6076 L 15605,6076 15605,7385 15805,7385 15805,6076 16282,6076 16282,5908 15125,5908 15125,6076 Z"/>
       </g>
      </g>
      <g class="com.sun.star.drawing.PolyPolygonShape">
       <g id="id18">
        <rect class="BoundingBox" stroke="none" fill="none" x="16841" y="5908" width="912" height="1478"/>
        <path fill="rgb(255,255,255)" stroke="none" d="M 16841,7385 L 17752,7385 17752,7222 17042,7222 17042,6718 17616,6718 17616,6561 17042,6561 17042,6071 17752,6071 17752,5908 16841,5908 16841,7385 Z"/>
       </g>
      </g>
      <g class="com.sun.star.drawing.ClosedBezierShape">
       <g id="id19">
        <rect class="BoundingBox" stroke="none" fill="none" x="18268" y="5891" width="960" height="1511"/>
        <path fill="rgb(255,255,255)" stroke="none" d="M 19116,6675 C 19083,6646 19045,6623 19003,6604 18961,6585 18917,6568 18873,6553 18829,6538 18786,6523 18743,6509 18701,6495 18663,6478 18629,6459 18596,6440 18569,6417 18549,6389 18528,6362 18518,6328 18518,6287 18518,6255 18524,6225 18536,6197 18548,6169 18565,6145 18588,6124 18611,6104 18639,6087 18675,6075 18709,6063 18749,6057 18793,6057 18841,6057 18881,6063 18914,6075 18948,6086 18976,6099 19000,6113 19024,6127 19043,6140 19059,6152 19074,6164 19088,6169 19099,6169 19110,6169 19119,6167 19126,6162 19133,6157 19139,6149 19146,6139 L 19194,6044 C 19143,5994 19084,5957 19016,5931 18948,5904 18873,5891 18790,5891 18717,5891 18652,5903 18594,5925 18537,5948 18490,5978 18451,6016 18413,6054 18384,6097 18363,6146 18343,6195 18333,6245 18333,6297 18333,6362 18343,6417 18363,6461 18384,6506 18410,6543 18443,6572 18476,6602 18514,6626 18556,6644 18598,6663 18641,6679 18687,6693 18731,6707 18774,6721 18816,6735 18859,6748 18896,6764 18929,6783 18962,6804 18989,6828 19009,6856 19029,6884 19039,6921 19039,6966 19039,7006 19033,7043 19019,7076 19005,7109 18985,7137 18960,7161 18934,7185 18902,7203 18865,7216 18828,7229 18786,7236 18739,7236 18682,7236 18632,7228 18593,7212 18553,7197 18520,7180 18492,7161 18464,7143 18441,7126 18423,7110 18404,7095 18387,7087 18373,7087 18363,7087 18355,7090 18347,7095 18339,7100 18332,7107 18327,7114 L 18269,7209 C 18325,7268 18392,7315 18470,7349 18549,7384 18636,7401 18733,7401 18811,7401 18881,7389 18942,7365 19004,7341 19055,7308 19098,7267 19140,7225 19172,7175 19194,7119 19216,7062 19227,7001 19227,6937 19227,6876 19217,6824 19197,6781 19176,6739 19150,6704 19116,6675 Z"/>
       </g>
      </g>
      <g class="com.sun.star.drawing.PolyPolygonShape">
       <g id="id20">
        <rect class="BoundingBox" stroke="none" fill="none" x="19680" y="5908" width="1158" height="1478"/>
        <path fill="rgb(255,255,255)" stroke="none" d="M 19680,6076 L 20159,6076 20159,7385 20360,7385 20360,6076 20837,6076 20837,5908 19680,5908 19680,6076 Z"/>
       </g>
      </g>
      <g class="com.sun.star.drawing.ClosedBezierShape">
       <g id="id21">
        <rect class="BoundingBox" stroke="none" fill="none" x="241" y="5" width="7366" height="7366"/>
        <path fill="rgb(255,255,255)" stroke="none" d="M 5801,2237 L 2046,2237 2046,1433 5801,1433 5801,2237 Z M 4398,5944 L 3456,5944 3456,2409 C 3745,2485 4151,2643 4398,2821 L 4398,5944 Z M 3924,6 C 1890,6 241,1654 241,3689 241,5722 1890,7370 3924,7370 5958,7370 7606,5722 7606,3689 7606,1654 5958,6 3924,6 Z"/>
       </g>
      </g>
     </g>
    </g>
   </g>
  </g>
 </g>
</svg>