<svg id="Layer_1" data-name="Layer 1" xmlns="http://www.w3.org/2000/svg" xmlns:xlink="http://www.w3.org/1999/xlink" viewBox="0 0 373.99 76.48"><defs><style>.cls-1{fill:none;}.cls-2{fill:#ffffff;}.cls-3{clip-path:url(#clip-path);}</style><clipPath id="clip-path" transform="translate(0 0)"><rect class="cls-1" width="373.99" height="76.48"/></clipPath></defs><title>logo</title><polygon class="cls-2" points="41.04 0 28.64 7.17 54.4 75.26 71.06 75.26 41.04 0"/><polygon class="cls-2" points="13.29 24 0 75.26 15.39 75.26 18.93 61.09 21.7 48.47 29.12 17.24 13.29 24"/><polygon class="cls-2" points="206.14 75.26 221.31 75.26 221.31 25 206.14 18.35 206.14 75.26"/><g class="cls-3"><path class="cls-2" d="M353.72,32.86l-12-3c-8-2.11-8.64-3.44-8.64-6.65a8.64,8.64,0,0,1,.44-2.32c-1.44-3.21-6-10.74-8.08-13-3.21,1.78-7.53,7.2-7.53,16.5,0,11.85,4.32,16.17,16.28,19.16l13.84,3.54c10.18,2.66,10.74,4.21,10.74,7.09a13.4,13.4,0,0,1-.36,2.5c-.43,1.56-1.73,4.2-6.87,5.87a39.33,39.33,0,0,1-10.38,1.48,134,134,0,0,1-22.14-2.21V73.93c4,1.44,13.84,2.55,20.92,2.55,2.11,0,4.76-.09,7.33-.31,1.52,0,11.5-.55,18.58-5.57h0c.22-.16.45-.33.68-.52a16.43,16.43,0,0,0,4.71-5.55c.06-.11.1-.22.15-.33A24.59,24.59,0,0,0,374,52.57c0-11.41-4.54-15.62-20.27-19.71" transform="translate(0 0)"/></g><rect class="cls-2" x="183.44" y="2.63" width="60.46" height="12.95"/><g class="cls-3"><path class="cls-2" d="M370.11,15.36V3.18a101.25,101.25,0,0,0-18.6-1.77A69.11,69.11,0,0,0,339,2.63c-2,2.44-4.76,10.3-5.43,13.84,4-1.66,10-2.66,17.94-2.66a151.47,151.47,0,0,1,18.6,1.55" transform="translate(0 0)"/></g><rect class="cls-2" x="272.14" y="2.63" width="15.17" height="72.63"/><g class="cls-3"><path class="cls-2" d="M157.22,28.19c0-16-5.88-25.51-30.51-25.51h-34v11.2l12.65,1.78h20.07c12.65,0,16.53,4.1,16.53,12.09,0,4.44-1.55,8.54-4.1,10.09-2.22,1.33-9,2.11-14.53,2.11H111.74V24.31l-15.2-6.1V75.45h15.2V52.37h12.42c3,0,6.08,0,9.11-.16l8.57,23.26,17.6,0L147.82,48.71c7.35-5,9.4-15,9.4-20.52" transform="translate(0 0)"/></g></svg>
