<?xml version="1.0" encoding="UTF-8"?>
<!DOCTYPE svg PUBLIC "-//W3C//DTD SVG 1.1//EN" "http://www.w3.org/Graphics/SVG/1.1/DTD/svg11.dtd">
<svg version="1.2"  width="307" height="74" viewBox="0 0 30691 7408" preserveAspectRatio="xMidYMid" fill-rule="evenodd" stroke-width="28.222" stroke-linejoin="round" xmlns="http://www.w3.org/2000/svg" xmlns:ooo="http://xml.openoffice.org/svg/export" xmlns:xlink="http://www.w3.org/1999/xlink" xmlns:presentation="http://sun.com/xmlns/staroffice/presentation" xmlns:smil="http://www.w3.org/2001/SMIL20/" xmlns:anim="urn:oasis:names:tc:opendocument:xmlns:animation:1.0" xml:space="preserve">
 <defs class="ClipPathGroup">
  <clipPath id="presentation_clip_path" clipPathUnits="userSpaceOnUse">
   <rect x="0" y="0" width="30691" height="7408"/>
  </clipPath>
  <clipPath id="presentation_clip_path_shrink" clipPathUnits="userSpaceOnUse">
   <rect x="30" y="7" width="30630" height="7394"/>
  </clipPath>
 </defs>
 <defs class="TextShapeIndex">
  <g ooo:slide="id1" ooo:id-list="id3 id4 id5 id6 id7 id8 id9 id10 id11 id12 id13 id14 id15 id16 id17 id18 id19 id20 id21 id22 id23"/>
 </defs>
 <defs class="EmbeddedBulletChars">
  <g id="bullet-char-template-57356" transform="scale(0.00048828125,-0.00048828125)">
   <path d="M 580,1141 L 1163,571 580,0 -4,571 580,1141 Z"/>
  </g>
  <g id="bullet-char-template-57354" transform="scale(0.00048828125,-0.00048828125)">
   <path d="M 8,1128 L 1137,1128 1137,0 8,0 8,1128 Z"/>
  </g>
  <g id="bullet-char-template-10146" transform="scale(0.00048828125,-0.00048828125)">
   <path d="M 174,0 L 602,739 174,1481 1456,739 174,0 Z M 1358,739 L 309,1346 659,739 1358,739 Z"/>
  </g>
  <g id="bullet-char-template-10132" transform="scale(0.00048828125,-0.00048828125)">
   <path d="M 2015,739 L 1276,0 717,0 1260,543 174,543 174,936 1260,936 717,1481 1274,1481 2015,739 Z"/>
  </g>
  <g id="bullet-char-template-10007" transform="scale(0.00048828125,-0.00048828125)">
   <path d="M 0,-2 C -7,14 -16,27 -25,37 L 356,567 C 262,823 215,952 215,954 215,979 228,992 255,992 264,992 276,990 289,987 310,991 331,999 354,1012 L 381,999 492,748 772,1049 836,1024 860,1049 C 881,1039 901,1025 922,1006 886,937 835,863 770,784 769,783 710,716 594,584 L 774,223 C 774,196 753,168 711,139 L 727,119 C 717,90 699,76 672,76 641,76 570,178 457,381 L 164,-76 C 142,-110 111,-127 72,-127 30,-127 9,-110 8,-76 1,-67 -2,-52 -2,-32 -2,-23 -1,-13 0,-2 Z"/>
  </g>
  <g id="bullet-char-template-10004" transform="scale(0.00048828125,-0.00048828125)">
   <path d="M 285,-33 C 182,-33 111,30 74,156 52,228 41,333 41,471 41,549 55,616 82,672 116,743 169,778 240,778 293,778 328,747 346,684 L 369,508 C 377,444 397,411 428,410 L 1163,1116 C 1174,1127 1196,1133 1229,1133 1271,1133 1292,1118 1292,1087 L 1292,965 C 1292,929 1282,901 1262,881 L 442,47 C 390,-6 338,-33 285,-33 Z"/>
  </g>
  <g id="bullet-char-template-9679" transform="scale(0.00048828125,-0.00048828125)">
   <path d="M 813,0 C 632,0 489,54 383,161 276,268 223,411 223,592 223,773 276,916 383,1023 489,1130 632,1184 813,1184 992,1184 1136,1130 1245,1023 1353,916 1407,772 1407,592 1407,412 1353,268 1245,161 1136,54 992,0 813,0 Z"/>
  </g>
  <g id="bullet-char-template-8226" transform="scale(0.00048828125,-0.00048828125)">
   <path d="M 346,457 C 273,457 209,483 155,535 101,586 74,649 74,723 74,796 101,859 155,911 209,963 273,989 346,989 419,989 480,963 531,910 582,859 608,796 608,723 608,648 583,586 532,535 482,483 420,457 346,457 Z"/>
  </g>
  <g id="bullet-char-template-8211" transform="scale(0.00048828125,-0.00048828125)">
   <path d="M -4,459 L 1135,459 1135,606 -4,606 -4,459 Z"/>
  </g>
  <g id="bullet-char-template-61548" transform="scale(0.00048828125,-0.00048828125)">
   <path d="M 173,740 C 173,903 231,1043 346,1159 462,1274 601,1332 765,1332 928,1332 1067,1274 1183,1159 1299,1043 1357,903 1357,740 1357,577 1299,437 1183,322 1067,206 928,148 765,148 601,148 462,206 346,322 231,437 173,577 173,740 Z"/>
  </g>
 </defs>
 <defs class="TextEmbeddedBitmaps"/>
 <g>
  <g id="id2" class="Master_Slide">
   <g id="bg-id2" class="Background"/>
   <g id="bo-id2" class="BackgroundObjects"/>
  </g>
 </g>
 <g class="SlideGroup">
  <g>
   <g id="container-id1">
    <g id="id1" class="Slide" clip-path="url(#presentation_clip_path)">
     <g class="Page">
      <g class="com.sun.star.drawing.ClosedBezierShape">
       <g id="id3">
        <rect class="BoundingBox" stroke="none" fill="none" x="27299" y="456" width="3198" height="3913"/>
        <path fill="rgb(255,255,255)" stroke="none" d="M 30034,4032 C 30047,4023 30060,4013 30073,4003 30181,3919 30276,3815 30342,3686 30345,3679 30347,3673 30350,3667 30436,3506 30496,3292 30496,3003 30496,2352 30237,2112 29339,1877 L 28657,1706 C 28202,1586 28164,1511 28164,1327 28164,1302 28177,1220 28190,1195 28108,1012 27849,582 27729,456 27545,557 27299,866 27299,1397 27299,2074 27545,2320 28228,2491 L 29017,2693 C 29598,2845 29630,2933 29630,3097 29630,3143 29617,3207 29610,3240 29585,3329 29511,3480 29218,3575 29041,3624 28840,3660 28626,3660 28234,3660 27615,3590 27362,3533 L 27362,4222 C 27589,4304 28152,4367 28556,4367 28676,4367 28827,4362 28974,4349 29061,4346 29630,4318 30034,4032 Z"/>
       </g>
      </g>
      <g class="com.sun.star.drawing.PolyPolygonShape">
       <g id="id4">
        <rect class="BoundingBox" stroke="none" fill="none" x="10790" y="2" width="2424" height="4297"/>
        <path fill="rgb(255,255,255)" stroke="none" d="M 10791,411 L 12262,4298 13213,4298 11500,2 10791,411 Z"/>
       </g>
      </g>
      <g class="com.sun.star.drawing.ClosedBezierShape">
       <g id="id5">
        <rect class="BoundingBox" stroke="none" fill="none" x="28190" y="83" width="2087" height="861"/>
        <path fill="rgb(255,255,255)" stroke="none" d="M 30275,880 L 30275,184 C 30053,133 29592,83 29213,83 28954,83 28638,121 28499,152 28385,291 28228,741 28190,943 28417,848 28758,792 29213,792 29491,792 29996,836 30275,880 Z"/>
       </g>
      </g>
      <g class="com.sun.star.drawing.PolyPolygonShape">
       <g id="id6">
        <rect class="BoundingBox" stroke="none" fill="none" x="9157" y="986" width="1664" height="3313"/>
        <path fill="rgb(255,255,255)" stroke="none" d="M 9915,1372 L 9157,4298 10035,4298 10238,3489 10396,2769 10820,986 9915,1372 Z"/>
       </g>
      </g>
      <g class="com.sun.star.drawing.PolyPolygonShape">
       <g id="id7">
        <rect class="BoundingBox" stroke="none" fill="none" x="19624" y="152" width="3451" height="742"/>
        <path fill="rgb(255,255,255)" stroke="none" d="M 19624,893 L 23074,893 23074,152 19624,152 19624,893 Z"/>
       </g>
      </g>
      <g class="com.sun.star.drawing.PolyPolygonShape">
       <g id="id8">
        <rect class="BoundingBox" stroke="none" fill="none" x="20919" y="1050" width="867" height="3249"/>
        <path fill="rgb(255,255,255)" stroke="none" d="M 21785,1429 L 20919,1050 20919,4298 21785,4298 21785,1429 Z"/>
       </g>
      </g>
      <g class="com.sun.star.drawing.PolyPolygonShape">
       <g id="id9">
        <rect class="BoundingBox" stroke="none" fill="none" x="24685" y="152" width="867" height="4147"/>
        <path fill="rgb(255,255,255)" stroke="none" d="M 24685,4298 L 25551,4298 25551,152 24685,152 24685,4298 Z"/>
       </g>
      </g>
      <g class="com.sun.star.drawing.ClosedBezierShape">
       <g id="id10">
        <rect class="BoundingBox" stroke="none" fill="none" x="14444" y="155" width="3812" height="4155"/>
        <path fill="rgb(255,255,255)" stroke="none" d="M 18129,1611 C 18129,700 17793,155 16387,155 L 14444,155 14444,795 15166,896 16311,896 C 17033,896 17255,1130 17255,1586 17255,1839 17167,2073 17020,2163 16894,2239 16507,2283 16191,2283 L 15533,2283 15533,1390 14666,1041 14666,4308 15533,4308 15533,2992 16242,2992 C 16411,2992 16588,2994 16761,2982 L 17251,4309 18255,4308 17593,2783 C 18012,2495 18129,1928 18129,1611 Z"/>
       </g>
      </g>
      <g class="com.sun.star.drawing.ClosedBezierShape">
       <g id="id11">
        <rect class="BoundingBox" stroke="none" fill="none" x="195" y="2" width="7388" height="7388"/>
        <path fill="rgb(255,255,255)" stroke="none" d="M 5474,5923 L 2304,5923 2304,5284 3467,3570 C 3599,3744 3755,4144 3797,4311 L 3169,5248 5474,5248 5474,5923 Z M 2357,1261 L 5366,1261 5366,1923 3264,1923 4417,3469 3960,4076 2357,1881 2357,1261 Z M 3889,2 C 1849,2 195,1656 195,3697 195,5736 1849,7389 3889,7389 5929,7389 7582,5736 7582,3697 7582,1656 5929,2 3889,2 Z"/>
       </g>
      </g>
      <g class="com.sun.star.drawing.ClosedBezierShape">
       <g id="id12">
        <rect class="BoundingBox" stroke="none" fill="none" x="9158" y="5891" width="962" height="1517"/>
        <path fill="rgb(255,255,255)" stroke="none" d="M 10007,6678 C 9974,6649 9936,6625 9893,6606 9851,6587 9808,6570 9763,6555 9719,6539 9675,6525 9633,6511 9591,6497 9553,6480 9519,6461 9486,6441 9459,6418 9439,6391 9418,6364 9408,6329 9408,6288 9408,6256 9414,6226 9426,6198 9437,6170 9455,6145 9478,6125 9501,6104 9530,6088 9564,6076 9599,6064 9638,6058 9683,6058 9731,6058 9771,6064 9804,6075 9838,6087 9866,6100 9890,6114 9914,6128 9934,6141 9949,6153 9965,6164 9978,6170 9990,6170 10001,6170 10010,6168 10017,6162 10024,6157 10030,6150 10036,6139 L 10086,6044 C 10034,5995 9974,5957 9906,5930 9838,5904 9763,5891 9680,5891 9606,5891 9541,5903 9484,5925 9427,5948 9380,5978 9341,6016 9302,6054 9273,6098 9253,6146 9232,6195 9222,6246 9222,6298 9222,6364 9232,6419 9253,6463 9273,6508 9300,6545 9333,6574 9366,6604 9404,6628 9446,6647 9488,6665 9532,6682 9576,6696 9620,6710 9664,6724 9706,6737 9749,6750 9786,6767 9819,6786 9852,6805 9879,6830 9900,6859 9920,6887 9930,6924 9930,6969 9930,7010 9923,7046 9909,7080 9896,7113 9876,7141 9850,7165 9824,7189 9793,7207 9755,7220 9718,7233 9676,7240 9628,7240 9571,7240 9523,7232 9483,7216 9443,7201 9410,7184 9382,7165 9354,7147 9331,7130 9312,7114 9293,7099 9277,7091 9262,7091 9253,7091 9244,7093 9236,7099 9228,7104 9221,7110 9216,7118 L 9158,7213 C 9214,7272 9281,7319 9360,7354 9439,7389 9526,7406 9622,7406 9701,7406 9771,7394 9832,7370 9894,7346 9946,7313 9988,7271 10031,7229 10063,7179 10086,7122 10108,7066 10119,7005 10119,6940 10119,6879 10109,6827 10089,6784 10067,6742 10040,6706 10007,6678 Z"/>
       </g>
      </g>
      <g class="com.sun.star.drawing.ClosedBezierShape">
       <g id="id13">
        <rect class="BoundingBox" stroke="none" fill="none" x="11624" y="5891" width="1297" height="1517"/>
        <path fill="rgb(255,255,255)" stroke="none" d="M 12466,6790 C 12466,6801 12470,6812 12477,6819 12485,6827 12496,6830 12509,6830 L 12738,6830 12738,7157 C 12712,7171 12686,7183 12660,7194 12634,7204 12606,7214 12576,7221 12547,7229 12515,7234 12482,7238 12448,7242 12412,7244 12372,7244 12291,7244 12218,7230 12152,7203 12085,7177 12028,7138 11980,7087 11932,7036 11894,6974 11868,6900 11841,6827 11828,6742 11828,6649 11828,6559 11841,6478 11866,6406 11892,6334 11928,6273 11976,6222 12023,6172 12081,6133 12148,6106 12216,6078 12291,6065 12376,6065 12433,6065 12482,6069 12524,6078 12566,6087 12602,6098 12633,6111 12663,6124 12689,6137 12710,6151 12732,6164 12751,6176 12768,6186 12781,6193 12794,6197 12805,6197 12823,6197 12838,6188 12850,6169 L 12907,6078 C 12875,6049 12841,6023 12805,6000 12768,5977 12728,5958 12685,5941 12642,5925 12596,5913 12545,5904 12495,5896 12441,5891 12382,5891 12265,5891 12161,5910 12067,5946 11974,5983 11894,6034 11829,6101 11763,6167 11712,6247 11677,6340 11641,6433 11624,6536 11624,6649 11624,6760 11642,6864 11678,6957 11714,7049 11764,7129 11829,7196 11894,7262 11971,7314 12061,7351 12150,7388 12249,7406 12357,7406 12419,7406 12475,7403 12528,7396 12580,7390 12629,7380 12675,7366 12721,7353 12764,7336 12804,7316 12844,7296 12883,7273 12920,7246 L 12920,6677 12466,6677 12466,6790 Z"/>
       </g>
      </g>
      <g class="com.sun.star.drawing.PolyPolygonShape">
       <g id="id14">
        <rect class="BoundingBox" stroke="none" fill="none" x="10762" y="5908" width="202" height="1482"/>
        <path fill="rgb(255,255,255)" stroke="none" d="M 10762,7389 L 10963,7389 10963,5908 10762,5908 10762,7389 Z"/>
       </g>
      </g>
      <g class="com.sun.star.drawing.ClosedBezierShape">
       <g id="id15">
        <rect class="BoundingBox" stroke="none" fill="none" x="19082" y="5908" width="1542" height="1482"/>
        <path fill="rgb(255,255,255)" stroke="none" d="M 20434,5913 C 20425,5916 20415,5926 20406,5942 L 19905,6853 C 19896,6871 19887,6889 19879,6906 19872,6924 19865,6942 19858,6962 19851,6943 19844,6925 19837,6906 19829,6888 19821,6871 19811,6854 L 19300,5942 C 19291,5926 19282,5916 19272,5913 19262,5910 19247,5908 19230,5908 L 19082,5908 19082,7389 19259,7389 19259,6300 C 19259,6286 19258,6270 19257,6253 19256,6236 19254,6218 19252,6200 L 19771,7130 C 19788,7161 19812,7177 19843,7177 L 19872,7177 C 19903,7177 19927,7161 19945,7130 L 20452,6203 C 20451,6221 20449,6237 20449,6254 20448,6270 20448,6286 20448,6300 L 20448,7389 20623,7389 20623,5908 20476,5908 C 20458,5908 20444,5910 20434,5913 Z"/>
       </g>
      </g>
      <g class="com.sun.star.drawing.ClosedBezierShape">
       <g id="id16">
        <rect class="BoundingBox" stroke="none" fill="none" x="25990" y="5908" width="1203" height="1482"/>
        <path fill="rgb(255,255,255)" stroke="none" d="M 27016,6958 C 27016,6973 27017,6990 27017,7007 27018,7024 27019,7041 27022,7059 L 26163,5942 C 26152,5928 26142,5919 26133,5915 26125,5910 26112,5908 26094,5908 L 25990,5908 25990,7389 26166,7389 26166,6333 C 26166,6320 26166,6305 26165,6288 26164,6272 26163,6255 26162,6237 L 27019,7353 C 27030,7366 27040,7376 27051,7381 27062,7387 27075,7389 27091,7389 L 27192,7389 27192,5908 27016,5908 27016,6958 Z"/>
       </g>
      </g>
      <g class="com.sun.star.drawing.PolyPolygonShape">
       <g id="id17">
        <rect class="BoundingBox" stroke="none" fill="none" x="27904" y="5908" width="914" height="1482"/>
        <path fill="rgb(255,255,255)" stroke="none" d="M 27904,7389 L 28817,7389 28817,7226 28106,7226 28106,6721 28681,6721 28681,6563 28106,6563 28106,6071 28817,6071 28817,5908 27904,5908 27904,7389 Z"/>
       </g>
      </g>
      <g class="com.sun.star.drawing.ClosedBezierShape">
       <g id="id18">
        <rect class="BoundingBox" stroke="none" fill="none" x="24077" y="5908" width="1202" height="1482"/>
        <path fill="rgb(255,255,255)" stroke="none" d="M 25103,6958 C 25103,6973 25103,6990 25104,7007 25104,7024 25106,7041 25108,7059 L 24249,5942 C 24238,5928 24228,5919 24220,5915 24211,5910 24198,5908 24180,5908 L 24077,5908 24077,7389 24252,7389 24252,6333 C 24252,6320 24252,6305 24251,6288 24251,6272 24250,6255 24248,6237 L 25106,7353 C 25116,7366 25127,7376 25137,7381 25148,7387 25161,7389 25177,7389 L 25278,7389 25278,5908 25103,5908 25103,6958 Z"/>
       </g>
      </g>
      <g class="com.sun.star.drawing.PolyPolygonShape">
       <g id="id19">
        <rect class="BoundingBox" stroke="none" fill="none" x="29305" y="5908" width="1162" height="1482"/>
        <path fill="rgb(255,255,255)" stroke="none" d="M 29305,6076 L 29787,6076 29787,7389 29987,7389 29987,6076 30466,6076 30466,5908 29305,5908 29305,6076 Z"/>
       </g>
      </g>
      <g class="com.sun.star.drawing.PolyPolygonShape">
       <g id="id20">
        <rect class="BoundingBox" stroke="none" fill="none" x="23128" y="5908" width="203" height="1482"/>
        <path fill="rgb(255,255,255)" stroke="none" d="M 23128,7389 L 23330,7389 23330,5908 23128,5908 23128,7389 Z"/>
       </g>
      </g>
      <g class="com.sun.star.drawing.ClosedBezierShape">
       <g id="id21">
        <rect class="BoundingBox" stroke="none" fill="none" x="15662" y="5908" width="1389" height="1482"/>
        <path fill="rgb(255,255,255)" stroke="none" d="M 16080,6840 L 16313,6237 C 16319,6219 16327,6199 16334,6175 16341,6151 16348,6125 16356,6097 16370,6153 16385,6199 16400,6236 L 16633,6840 16080,6840 Z M 16255,5908 L 15662,7389 15817,7389 C 15834,7389 15848,7385 15860,7375 15872,7365 15880,7354 15885,7342 L 16024,6984 16689,6984 16827,7342 C 16833,7356 16841,7367 16852,7376 16863,7385 16877,7389 16895,7389 L 17050,7389 16458,5908 16255,5908 Z"/>
       </g>
      </g>
      <g class="com.sun.star.drawing.ClosedBezierShape">
       <g id="id22">
        <rect class="BoundingBox" stroke="none" fill="none" x="21165" y="5908" width="1390" height="1482"/>
        <path fill="rgb(255,255,255)" stroke="none" d="M 21583,6840 L 21816,6237 C 21823,6219 21830,6199 21837,6175 21844,6151 21852,6125 21859,6097 21874,6153 21889,6199 21904,6236 L 22136,6840 21583,6840 Z M 21758,5908 L 21165,7389 21320,7389 C 21337,7389 21352,7385 21363,7375 21375,7365 21383,7354 21388,7342 L 21528,6984 22192,6984 22330,7342 C 22336,7356 22344,7367 22355,7376 22366,7385 22381,7389 22399,7389 L 22554,7389 21962,5908 21758,5908 Z"/>
       </g>
      </g>
      <g class="com.sun.star.drawing.ClosedBezierShape">
       <g id="id23">
        <rect class="BoundingBox" stroke="none" fill="none" x="13578" y="5908" width="1543" height="1482"/>
        <path fill="rgb(255,255,255)" stroke="none" d="M 14931,5913 C 14921,5916 14912,5926 14903,5942 L 14401,6853 C 14391,6871 14383,6889 14375,6906 14368,6924 14360,6942 14353,6962 14347,6943 14340,6925 14332,6906 14325,6888 14317,6871 14307,6854 L 13796,5942 C 13787,5926 13777,5916 13768,5913 13758,5910 13744,5908 13726,5908 L 13579,5908 13579,7389 13754,7389 13754,6300 C 13754,6286 13754,6270 13753,6253 13752,6236 13750,6218 13748,6200 L 14267,7130 C 14284,7161 14308,7177 14339,7177 L 14368,7177 C 14399,7177 14423,7161 14440,7130 L 14949,6203 C 14947,6221 14946,6237 14946,6254 14945,6270 14944,6286 14944,6300 L 14944,7389 15120,7389 15120,5908 14972,5908 C 14955,5908 14941,5910 14931,5913 Z"/>
       </g>
      </g>
     </g>
    </g>
   </g>
  </g>
 </g>
</svg>