<?xml version="1.0" standalone="no"?>
<!DOCTYPE svg PUBLIC "-//W3C//DTD SVG 20010904//EN"
 "http://www.w3.org/TR/2001/REC-SVG-20010904/DTD/svg10.dtd">
<svg version="1.0" xmlns="http://www.w3.org/2000/svg"
 width="1024.000000pt" height="1024.000000pt" viewBox="0 0 1024.000000 1024.000000"
 preserveAspectRatio="xMidYMid meet">
<metadata>
Created by potrace 1.11, written by Peter Selinger 2001-2013
</metadata>
<g transform="translate(0.000000,1024.000000) scale(0.100000,-0.100000)"
fill="#000000" stroke="none">
<path d="M6519 8906 c-69 -18 -136 -62 -175 -115 l-36 -48 -116 -11 c-65 -7
-427 -43 -807 -82 -379 -38 -1000 -101 -1380 -140 -379 -38 -747 -76 -818 -83
l-127 -13 -22 23 c-33 35 -116 72 -178 79 -148 17 -303 -88 -341 -231 -17 -61
-7 -172 18 -224 l22 -45 -653 -1505 c-359 -828 -659 -1508 -667 -1512 -8 -4
-38 -17 -67 -30 -63 -27 -135 -100 -164 -167 -32 -72 -30 -182 5 -254 51 -105
147 -174 260 -186 l62 -7 978 -1295 c782 -1034 977 -1298 971 -1315 -3 -11 -8
-52 -11 -92 -10 -137 52 -245 174 -305 58 -28 77 -33 143 -33 62 0 85 5 131
28 52 25 109 77 149 133 14 21 63 27 1020 123 553 56 1286 131 1630 165 l625
64 39 -35 c63 -58 119 -78 211 -77 66 0 90 5 137 27 164 80 228 275 143 439
l-24 48 652 1500 c359 824 655 1500 659 1500 4 0 33 10 65 22 74 27 153 101
184 171 33 76 32 182 -3 259 -50 108 -147 176 -265 186 l-66 5 -984 1315 -984
1315 6 61 c16 157 -85 300 -242 341 -67 18 -92 18 -154 1z m-550 -490 c-2 -2
-276 -160 -609 -351 -333 -191 -617 -354 -631 -362 -24 -14 -67 -3 -794 208
l-769 224 60 7 c32 4 329 35 659 68 1184 120 1683 170 1855 189 183 19 236 23
229 17z m451 -93 c0 -5 -112 -205 -248 -447 l-247 -438 -47 -2 c-37 -1 -54 -8
-77 -30 l-30 -29 -340 99 c-187 54 -337 102 -333 105 18 17 1298 749 1309 749
7 0 13 -3 13 -7z m103 -38 l50 -11 189 -764 c103 -420 187 -767 186 -771 -2
-4 -217 116 -478 267 l-475 276 0 43 c0 31 -6 50 -22 67 l-22 23 252 447 c140
249 256 444 261 440 6 -3 32 -11 59 -17z m-2742 -364 c338 -98 673 -196 746
-217 73 -21 130 -40 127 -43 -3 -3 -201 -118 -441 -256 l-436 -250 -50 24
c-29 14 -74 27 -106 29 l-56 4 -232 409 -232 409 17 40 c12 27 22 38 33 35 8
-3 292 -86 630 -184z m3993 -1053 c443 -593 806 -1080 806 -1083 0 -3 -17 6
-37 19 -21 13 -308 180 -638 371 -330 191 -601 348 -602 349 -1 1 -83 327
-181 725 -99 397 -174 717 -167 709 7 -7 376 -498 819 -1090z m-4948 680 c-3
-183 -9 -529 -12 -768 l-6 -435 -96 -95 c-159 -158 -1017 -968 -1020 -965 -3
3 427 997 1096 2538 13 31 29 57 35 57 6 0 8 -112 3 -332z m270 -90 l221 -391
-25 -55 c-22 -49 -24 -64 -20 -142 l5 -88 -210 -199 c-115 -109 -214 -200
-220 -202 -6 -2 -7 50 -3 150 3 85 9 419 12 742 4 323 9 585 13 582 3 -4 105
-182 227 -397z m2309 -9 c193 -56 353 -104 356 -108 4 -3 9 -23 12 -43 l6 -38
-410 -350 c-225 -192 -414 -350 -421 -350 -29 1 -997 346 -995 355 1 10 1074
633 1092 635 6 0 168 -45 360 -101z m1069 -484 l492 -285 109 -440 c69 -278
106 -443 100 -449 -6 -5 -215 63 -533 174 -288 101 -525 185 -527 187 -2 1
-46 241 -99 532 l-95 528 22 19 c12 10 26 18 31 19 4 0 229 -128 500 -285z
m-601 245 c10 0 37 -127 107 -515 51 -284 90 -518 87 -521 -6 -6 -1046 353
-1060 366 -5 4 173 163 395 353 401 344 403 345 430 331 15 -8 33 -14 41 -14z
m-1630 -711 c237 -83 437 -154 443 -157 6 -4 -143 -139 -355 -320 -304 -261
-367 -310 -373 -295 -13 31 -177 906 -172 915 3 4 10 8 15 8 5 0 204 -68 442
-151z m-643 -444 c55 -292 103 -537 106 -547 3 -12 -106 -111 -406 -368 l-411
-351 -34 11 -34 11 6 472 c3 260 8 522 12 583 l6 112 323 307 c178 169 325
305 327 303 2 -1 49 -242 105 -533z m4340 60 c311 -180 596 -345 634 -367 50
-30 65 -43 55 -49 -8 -5 -224 -9 -481 -9 l-467 0 -15 28 c-23 44 -87 99 -148
127 l-56 26 -72 290 c-39 159 -74 297 -77 306 -6 14 -1 13 28 -4 19 -12 288
-168 599 -348z m-2501 -34 c375 -131 686 -242 690 -247 13 -14 192 -1027 183
-1033 -5 -3 -247 -214 -540 -468 -292 -255 -535 -463 -540 -463 -9 0 -984 338
-987 342 -1 2 -64 329 -140 726 l-138 724 24 23 c66 64 743 635 753 635 6 0
319 -107 695 -239z m-2644 -708 c-4 -328 -11 -559 -16 -561 -22 -9 -71 -57
-80 -79 l-9 -23 -532 0 -533 0 -11 45 -11 46 596 564 c328 311 598 565 600
565 2 0 0 -251 -4 -557z m3835 292 c243 -85 444 -155 446 -155 2 0 4 -10 3
-22 0 -17 -92 -102 -362 -336 -299 -258 -363 -310 -369 -295 -4 10 -43 223
-88 473 -44 250 -83 463 -86 473 -3 9 -1 17 4 17 5 0 209 -70 452 -155z
m-2805 -784 c58 -304 104 -555 103 -557 -2 -1 -228 75 -503 171 l-500 173 -7
47 c-6 44 -5 49 25 75 237 207 772 659 774 653 1 -4 50 -257 108 -562z m4822
495 l21 -33 -561 -527 -562 -526 -3 487 c-2 444 -1 488 14 496 32 18 95 81
110 109 l15 28 472 0 472 0 22 -34z m4 -128 c-10 -24 -261 -601 -558 -1283
-297 -682 -543 -1247 -546 -1255 -3 -8 -6 332 -6 756 l-1 772 548 512 c301
282 551 519 557 526 20 28 24 13 6 -28z m-1473 -1302 c-40 -38 -170 -160 -289
-272 l-215 -202 -42 11 c-23 6 -42 14 -42 17 0 3 -41 230 -90 505 -72 399 -88
501 -78 511 7 7 195 170 418 364 l405 351 3 -608 3 -608 -73 -69z m-4479 712
c12 -31 49 -63 86 -75 29 -9 29 -9 117 -362 49 -195 87 -356 84 -358 -3 -3
-1219 693 -1355 776 -8 5 -11 16 -8 25 6 14 57 16 537 16 l530 0 9 -22z m719
-197 c282 -98 515 -180 518 -183 6 -6 213 -1081 209 -1086 -1 -2 -252 141
-556 316 l-553 319 -94 377 -94 376 28 29 c16 16 29 29 29 29 0 1 231 -79 513
-177z m2967 -13 c3 -13 41 -225 85 -473 44 -247 82 -459 84 -470 3 -13 -7 -29
-29 -47 l-33 -28 -471 163 -472 164 408 356 c224 195 411 356 415 356 4 1 10
-9 13 -21z m-3808 -688 l512 -295 175 -705 c96 -387 173 -706 172 -708 -2 -1
-12 10 -22 26 -11 16 -373 497 -806 1070 -434 572 -788 1043 -788 1045 0 3 55
-27 123 -66 67 -40 353 -205 634 -367z m2153 245 c250 -86 458 -160 462 -164
7 -6 -670 -602 -693 -610 -20 -6 -69 22 -74 43 -3 11 -41 210 -85 441 -44 231
-82 428 -84 438 -3 11 0 17 7 14 7 -2 217 -75 467 -162z m2520 -867 c0 -487
-4 -818 -9 -812 -5 5 -131 216 -281 469 -150 253 -277 465 -282 472 -6 8 -2
22 13 42 19 25 21 38 16 86 l-6 55 272 255 c149 140 273 255 274 255 2 0 3
-370 3 -822z m-1246 424 l479 -167 3 -31 4 -32 -513 -305 -512 -305 -395 118
c-346 103 -395 120 -395 137 0 14 133 136 420 386 231 201 422 366 425 366 3
1 221 -75 484 -167z m-2400 -394 l419 -243 14 -55 c8 -30 23 -70 34 -88 l19
-34 -232 -395 -233 -395 -59 -2 c-43 -1 -61 3 -67 14 -5 8 -88 335 -184 725
-96 391 -178 718 -181 728 -7 23 -50 46 470 -255z m2934 111 c18 -14 38 -19
65 -17 l39 2 284 -479 c156 -264 284 -482 283 -485 0 -3 -19 -20 -40 -39 l-40
-34 -804 239 c-443 131 -805 241 -805 244 1 6 971 588 983 589 5 1 21 -8 35
-20z m-1696 -671 c153 -46 278 -85 278 -88 0 -10 -1218 -730 -1234 -730 -9 0
-16 4 -16 9 0 4 107 190 238 412 l237 404 45 6 c50 7 104 29 135 53 11 8 24
16 29 16 6 0 135 -37 288 -82z m1069 -319 c393 -116 718 -216 724 -220 5 -5
-6 -9 -25 -9 -19 0 -609 -59 -1310 -130 -701 -72 -1284 -130 -1294 -130 -11 0
248 160 575 355 327 195 599 353 605 350 6 -2 333 -99 725 -216z"/>
</g>
</svg>
